# xmcd CD database file
#
# Track frame offsets:
#	150
#	15895
#	32657
#	48855
#	65318
#	86553
#	103276
#	122056
#	141890
#	161405
#	180042
#	196342
#	203363
#	218056
#	236176
#	256602
#	280882
#
# Disc length: 3810 seconds
#
# Revision: 10
# Processed by: cddbd v1.5.1PL0 Copyright (c) Steve Scherf et al.
# Submitted via: CDex 1.51
#
DISCID=d80ee011
DTITLE=Brad Paisley - Mud On The Tires
DYEAR=2003
DGENRE=Country
TTITLE0=Mud On The Tires
TTITLE1=Celebrity
TTITLE2=Ain't Nothin' Like
TTITLE3=Little Moments
TTITLE4=That's Love
TTITLE5=Somebody Knows You Now
TTITLE6=Famous People
TTITLE7=Hold Me In Your Arms (And Let Me Fall)
TTITLE8=Whiskey Lullaby (Feat. Alison Krauss)
TTITLE9=The Best Thing That I Had Goin'
TTITLE10=The Cigar Song
TTITLE11=Make A Mistake
TTITLE12=Make A Mistake With Me (Instrumental)
TTITLE13=Is It Raining At Your House
TTITLE14=Spaghetti Western Swing (Instrumental Feat. Redd Volkaert)
TTITLE15=Farther Along
TTITLE16=Kung Pao (Bonus)
EXTD=YEAR: 2003
EXTT0=
EXTT1=
EXTT2=
EXTT3=
EXTT4=
EXTT5=
EXTT6=
EXTT7=
EXTT8=
EXTT9=
EXTT10=
EXTT11=
EXTT12=
EXTT13=
EXTT14=
EXTT15=
EXTT16=
PLAYORDER=
